PathFileType	4	(X/Y/Z)	Patient4_TMGait_0pt2_02_right_04.trc.trc
DataRate	CameraRate	NumFrames	NumMarkers	Units	OrigDataRate	OrigDataStartFrame	OrigNumFrames
43.209876543210	43.209876543210	4	33	mm	43.209876543210	106	       141
Frame#	Time	R.Midfoot.Superior			Sacral			L.Shoulder			Chest			R.Shoulder			Neck			R.ASIS			L.ASIS			R.Thigh.Superior			R.Thigh.Lateral			R.Thigh.Inferior			R.Patella			L.Thigh.Superior			L.Thigh.Lateral			L.Thigh.Inferior			L.Patella			L.Shank.Superior			L.Shank.Lateral			L.Shank.Inferior			R.Shank.Superior			R.Shank.Lateral			R.Shank.Inferior			R.Heel			R.Midfoot.Lateral			R.Toe			L.Heel			L.Midfoot.Lateral			L.Midfoot.Superior			L.Toe			L.Elbow			L.Wrist			R.Elbow			R.Wrist			
		X1	Y1	Z1	X2	Y2	Z2	X3	Y3	Z3	X4	Y4	Z4	X5	Y5	Z5	X6	Y6	Z6	X7	Y7	Z7	X8	Y8	Z8	X9	Y9	Z9	X10	Y10	Z10	X11	Y11	Z11	X12	Y12	Z12	X13	Y13	Z13	X14	Y14	Z14	X15	Y15	Z15	X16	Y16	Z16	X17	Y17	Z17	X18	Y18	Z18	X19	Y19	Z19	X20	Y20	Z20	X21	Y21	Z21	X22	Y22	Z22	X23	Y23	Z23	X24	Y24	Z24	X25	Y25	Z25	X26	Y26	Z26	X27	Y27	Z27	X28	Y28	Z28	X29	Y29	Z29	X30	Y30	Z30	X31	Y31	Z31	X32	Y32	Z32	X33	Y33	Z33	

106	10.080000000000	766.541321688498	143.851388604597	569.641486818589	749.671265801983	987.895910350374	372.207773662970	964.237403474905	1412.882733188367	208.158439909273	1045.410115731935	1337.914337987130	378.357561454271	947.158109511809	1410.143293130200	544.171014432357	928.724770965525	1474.029961378811	365.696438721005	968.911453979059	921.034372544547	508.954534874658	978.592881284758	938.667024373631	235.055268725027	1029.351035672463	729.918449147502	490.633395495533	962.140390099808	618.505902547864	561.004153661437	1047.620144299104	561.487677814149	488.850483536880	1044.478056718372	450.130969323312	516.360266101020	1042.784558136816	740.673977219701	286.130805204261	980.074310500887	607.508769853361	229.545970791026	1065.171498880690	546.857768490272	311.243953841101	1072.484244555662	471.593753238327	324.272270730272	1030.622364064387	395.267522639621	317.597617036249	931.041202723410	294.170061947387	257.070043785482	947.543164649054	180.997274468271	337.358014357395	960.265874900793	386.400579122358	526.688973957322	835.082607699573	364.020323383097	590.892735106576	808.667368849565	253.460081544840	547.646762006275	596.325297443516	202.136995797705	526.211253298491	656.155943533980	145.976944511167	602.213960105886	831.498503137567	34.880824332988	601.029566841497	793.110390346054	39.326171244975	366.892805567242	873.414339081968	35.768143456931	292.889533371820	955.728127858849	95.238192580927	327.695557648790	1085.227191435384	40.389653863037	308.421329623477	1057.808357498790	1085.826495809385	66.710933712125	1234.942760595806	892.935833135999	82.895217873002	863.785919250343	1064.281122252965	645.037770808036	900.466210232593	806.141195956989	662.318166596411	
107	10.103142857143	780.808833247361	145.486856610285	568.411381035842	747.597219104354	989.188580732719	369.220905526462	967.142501933286	1413.525762712706	208.376107478330	1044.427112361100	1338.723397602447	380.384949485038	942.734541857016	1411.586658509883	543.930038044771	928.537694536680	1474.935763286650	365.224502808887	965.141282429109	922.700155004675	509.138056228993	978.433133490101	939.496683334113	235.244232645451	1031.153717464723	735.181613706672	488.919857643636	968.352810193902	621.678247418207	559.320383791673	1054.884083959365	567.119865211815	486.405491619319	1055.168412797431	455.320034589604	513.947331131389	1040.637536091892	740.211158957855	286.629838425710	977.072129942265	607.764407280269	229.781945376810	1060.488367641694	546.506193288500	312.576060520939	1067.141091945533	471.569890288885	325.831615884723	1025.308431184989	395.454016470901	318.488390259707	926.435749359732	294.165126326618	257.350701838567	942.706387109353	181.104906176861	337.786227520620	971.756362948244	389.961245510460	524.806737908570	847.041620827922	366.157700697359	589.476373638622	821.625057925496	255.365534303053	546.355652597486	609.855748187410	201.948159352754	525.986143633601	670.632426133124	146.542947361019	601.737064431245	847.018287371018	36.145524795143	599.611643284087	788.345832072887	39.235753014226	366.799570859367	868.709469607069	35.711853170642	292.810279947679	951.011039421680	95.241677479144	327.730692743911	1080.501381613131	40.499926125796	308.451681028161	1068.097559750014	1089.989329080514	66.114800699037	1257.046811143909	908.910211795253	84.808951176327	839.278676469915	1071.263109822537	641.939200280557	857.750113778328	810.952549075416	657.636133241616	
108	10.126285714286	798.373620002778	145.548922715983	567.915675717327	745.550642229466	991.250161932651	366.489434535070	970.047629548614	1414.762338735956	208.956744038798	1043.428437665977	1340.168721348169	382.692538256743	938.419154922379	1413.840007758094	543.835677502580	928.380257184221	1476.462678923743	365.015312823799	961.115043170432	924.980225781133	509.752050947863	978.230759836873	940.898202291777	235.953592383492	1031.728659541262	740.811124342121	487.809760516608	972.808223851282	625.577982684476	558.263002761391	1060.135486080525	573.251053463743	484.699231424118	1063.922068390705	461.574062128453	512.186425573121	1037.875733579927	740.019542866698	287.430159809357	973.142663081715	608.541323721443	230.033047652153	1054.670968993726	546.412371707846	313.789615795112	1060.484648994454	471.911929771516	327.196250319491	1018.923534200815	396.083276734435	319.157045690260	921.004770324901	294.333742756946	257.509441940938	937.473682310125	181.441173750225	338.122470270854	982.278876910467	394.115707966686	523.631724631667	858.814699618471	367.130769710476	588.874970723642	836.110515833283	255.983934039288	545.838260236617	626.309514731828	197.148420352762	526.632050826527	688.822006782163	143.711375046866	602.111396674719	867.475781277586	37.758720727731	598.857751109045	783.549316646343	39.118670497373	366.714786901356	863.975261831735	35.640455111486	292.730115422650	946.245560469170	95.267771305959	327.733343304190	1075.742920800668	40.666102801079	308.491919449595	1077.499693021300	1094.821808009937	65.767820989830	1277.809384265486	926.724610223450	87.047037952606	816.523290017521	1079.819216964918	638.712165316272	818.713023828100	818.658944461297	652.634834435526	
109	10.149428571429	819.214662972544	144.074062717174	568.246140413443	743.568447985017	993.957111090545	363.993460992694	972.948875250447	1416.486893227959	209.864622916053	1042.435466512318	1342.132095651069	385.233721231098	934.270688253645	1416.763534859732	543.873357108397	928.266270487873	1478.506792345025	365.042361171112	956.870618693005	927.742870523416	510.765194845711	977.998441193965	942.764808542804	237.164557843218	1031.036775963896	746.517959118440	487.423561244130	975.303814693848	629.948815913398	557.955649473996	1063.227884562676	579.537645487368	483.922566781765	1070.499833017972	468.604664962513	511.283758869342	1034.542911393390	740.042953108310	288.459606589937	968.354245079722	609.780887893101	230.206586125332	1047.826485048534	546.531386191281	314.761116507474	1052.627852481716	472.569681946688	328.232374017031	1011.576430546589	397.098106077745	319.509414755879	914.809013634942	294.641733062067	257.486142808306	931.874485468105	181.975696350863	338.326363616651	991.640520299078	398.669296509917	523.309150751074	870.307511162784	366.801741365358	589.189435657814	852.071462618156	255.284536289309	546.198755666722	645.869913668395	187.824539182018	528.141683247615	710.789440841408	137.576917687933	603.354064973055	892.741253131617	39.772115439818	598.903484502934	778.728745150853	38.977849809403	366.639952227639	859.215204149452	35.552609256627	292.648181167277	941.434116855130	95.310850592937	327.698807060228	1070.956377489001	40.884580278059	308.539770082570	1086.158464101490	1100.184531904454	65.667855192705	1297.147096612492	946.124975744202	89.592042439654	795.843345799910	1089.469067154305	635.412290234710	783.858475244542	828.389025632086	647.505088831634	
